<?xml version="1.0" encoding="UTF-8"?>
<svg width="1000" height="800" viewBox="0 0 1000 800" xmlns="http://www.w3.org/2000/svg">
<defs>
    <marker id="arrowhead" markerWidth="10" markerHeight="7" refX="10" refY="3.5" orient="auto">
      <polygon points="0 0, 10 3.5, 0 7" fill="#666" />
    </marker>
</defs>
<style>
    .point-poinsp { fill: #2196F3; stroke: #1976D2; stroke-width: 2; }
    .point-curve { fill: #FF9800; stroke: #F57F17; stroke-width: 2; }
    .path-line { stroke: #4CAF50; stroke-width: 3; fill: none; marker-end: url(#arrowhead); }
    .path-arc { stroke: #E91E63; stroke-width: 3; fill: none; marker-end: url(#arrowhead); }
    .label { font-family: Arial, sans-serif; font-size: 12px; fill: #333; }
    .coord-label { font-family: Arial, sans-serif; font-size: 10px; fill: #666; }
    .grid { stroke: #eee; stroke-width: 1; }
    .axis { stroke: #ccc; stroke-width: 2; }
</style>
<line x1="150" y1="50" x2="150" y2="750" class="grid" />
<line x1="250" y1="50" x2="250" y2="750" class="grid" />
<line x1="350" y1="50" x2="350" y2="750" class="grid" />
<line x1="450" y1="50" x2="450" y2="750" class="grid" />
<line x1="550" y1="50" x2="550" y2="750" class="grid" />
<line x1="650" y1="50" x2="650" y2="750" class="grid" />
<line x1="750" y1="50" x2="750" y2="750" class="grid" />
<line x1="850" y1="50" x2="850" y2="750" class="grid" />
<line x1="50" y1="750" x2="950" y2="750" class="grid" />
<line x1="50" y1="650" x2="950" y2="650" class="grid" />
<line x1="50" y1="550" x2="950" y2="550" class="grid" />
<line x1="50" y1="450" x2="950" y2="450" class="grid" />
<line x1="50" y1="350" x2="950" y2="350" class="grid" />
<line x1="50" y1="250" x2="950" y2="250" class="grid" />
<line x1="50" y1="150" x2="950" y2="150" class="grid" />
<line x1="50" y1="50" x2="950" y2="50" class="grid" />
<line x1="150.0" y1="750.0" x2="350.0" y2="750.0" class="path-line" />
<text x="250.0" y="745.0" class="label" text-anchor="middle">200.0mm</text>
<path d="M 350.0 750.0 Q 500.0 700.0 550.0 550.0" class="path-arc" />
<text x="450.0" y="635.0" class="label" text-anchor="middle">Arc: NaNmm</text>
<text x="450.0" y="660.0" class="coord-label" text-anchor="middle">R=75.0</text>
<line x1="550.0" y1="550.0" x2="650.0" y2="750.0" class="path-line" />
<text x="600.0" y="645.0" class="label" text-anchor="middle">223.6mm</text>
<path d="M 650.0 750.0 Q 856.1 756.1 850.0 550.0" class="path-arc" />
<text x="750.0" y="635.0" class="label" text-anchor="middle">Arc: 369.3mm</text>
<text x="750.0" y="660.0" class="coord-label" text-anchor="middle">R=150.0</text>
<line x1="850.0" y1="550.0" x2="250.0" y2="450.0" class="path-line" />
<text x="550.0" y="495.0" class="label" text-anchor="middle">608.3mm</text>
<path d="M 250.0 450.0 Q 479.9 519.4 650.0 350.0" class="path-arc" />
<text x="450.0" y="385.0" class="label" text-anchor="middle">Arc: 454.6mm</text>
<text x="450.0" y="410.0" class="coord-label" text-anchor="middle">R=300.0</text>
<line x1="650.0" y1="350.0" x2="150.0" y2="250.0" class="path-line" />
<text x="400.0" y="295.0" class="label" text-anchor="middle">509.9mm</text>
<path d="M 150.0 250.0 Q 250.0 175.0 250.0 50.0" class="path-arc" />
<text x="200.0" y="135.0" class="label" text-anchor="middle">Arc: NaNmm</text>
<text x="200.0" y="160.0" class="coord-label" text-anchor="middle">R=100.0</text>
<circle cx="150.0" cy="750.0" r="6" class="point-poinsp" />
<text x="150.0" y="738.0" class="label" text-anchor="middle">0</text>
<text x="150.0" y="770.0" class="coord-label" text-anchor="middle">(100,100)</text>
<circle cx="350.0" cy="750.0" r="6" class="point-poinsp" />
<text x="350.0" y="738.0" class="label" text-anchor="middle">1</text>
<text x="350.0" y="770.0" class="coord-label" text-anchor="middle">(300,100)</text>
<circle cx="450.0" cy="650.0" r="6" class="point-curve" />
<text x="450.0" y="638.0" class="label" text-anchor="middle">2</text>
<text x="450.0" y="670.0" class="coord-label" text-anchor="middle">(400,200)</text>
<circle cx="550.0" cy="550.0" r="6" class="point-poinsp" />
<text x="550.0" y="538.0" class="label" text-anchor="middle">3</text>
<text x="550.0" y="570.0" class="coord-label" text-anchor="middle">(500,300)</text>
<circle cx="650.0" cy="750.0" r="6" class="point-poinsp" />
<text x="650.0" y="738.0" class="label" text-anchor="middle">4</text>
<text x="650.0" y="770.0" class="coord-label" text-anchor="middle">(600,100)</text>
<circle cx="750.0" cy="650.0" r="6" class="point-curve" />
<text x="750.0" y="638.0" class="label" text-anchor="middle">5</text>
<text x="750.0" y="670.0" class="coord-label" text-anchor="middle">(700,200)</text>
<circle cx="850.0" cy="550.0" r="6" class="point-poinsp" />
<text x="850.0" y="538.0" class="label" text-anchor="middle">6</text>
<text x="850.0" y="570.0" class="coord-label" text-anchor="middle">(800,300)</text>
<circle cx="250.0" cy="450.0" r="6" class="point-poinsp" />
<text x="250.0" y="438.0" class="label" text-anchor="middle">7</text>
<text x="250.0" y="470.0" class="coord-label" text-anchor="middle">(200,400)</text>
<circle cx="450.0" cy="400.0" r="6" class="point-curve" />
<text x="450.0" y="388.0" class="label" text-anchor="middle">8</text>
<text x="450.0" y="420.0" class="coord-label" text-anchor="middle">(400,450)</text>
<circle cx="650.0" cy="350.0" r="6" class="point-poinsp" />
<text x="650.0" y="338.0" class="label" text-anchor="middle">9</text>
<text x="650.0" y="370.0" class="coord-label" text-anchor="middle">(600,500)</text>
<circle cx="150.0" cy="250.0" r="6" class="point-poinsp" />
<text x="150.0" y="238.0" class="label" text-anchor="middle">10</text>
<text x="150.0" y="270.0" class="coord-label" text-anchor="middle">(100,600)</text>
<circle cx="200.0" cy="150.0" r="6" class="point-curve" />
<text x="200.0" y="138.0" class="label" text-anchor="middle">11</text>
<text x="200.0" y="170.0" class="coord-label" text-anchor="middle">(150,700)</text>
<circle cx="250.0" cy="50.0" r="6" class="point-poinsp" />
<text x="250.0" y="38.0" class="label" text-anchor="middle">12</text>
<text x="250.0" y="70.0" class="coord-label" text-anchor="middle">(200,800)</text>
<rect x="10" y="10" width="200" height="80" fill="white" stroke="#ccc" stroke-width="1" rx="5" />
<text x="20" y="30" class="label">SPINE路径信息</text>
<text x="20" y="50" class="coord-label">总长度: 2872.086 mm</text>
<text x="20" y="70" class="coord-label">点数: 13 (9个POINSP, 4个CURVE)</text>
<circle cx="230" cy="30" r="6" class="point-poinsp" />
<text x="245" y="35" class="coord-label">POINSP</text>
<circle cx="230" cy="50" r="6" class="point-curve" />
<text x="245" y="55" class="coord-label">CURVE</text>
<line x1="230" y1="70" x2="260" y2="70" class="path-line" />
<path d="M 230 90 Q 245 85 260 90" class="path-arc" />
</svg>