<?xml version="1.0" encoding="UTF-8"?>
<svg width="1000" height="700" viewBox="0 0 1000 700" xmlns="http://www.w3.org/2000/svg">
<defs>
    <marker id="arrowhead" markerWidth="10" markerHeight="7" refX="10" refY="3.5" orient="auto">
      <polygon points="0 0, 10 3.5, 0 7" fill="#666" />
    </marker>
</defs>
<style>
    .point-poinsp { fill: #2196F3; stroke: #1976D2; stroke-width: 2; }
    .point-curve { fill: #FF9800; stroke: #F57F17; stroke-width: 2; }
    .path-line { stroke: #4CAF50; stroke-width: 3; fill: none; marker-end: url(#arrowhead); }
    .path-arc { stroke: #E91E63; stroke-width: 3; fill: none; marker-end: url(#arrowhead); }
    .label { font-family: Arial, sans-serif; font-size: 12px; fill: #333; }
    .coord-label { font-family: Arial, sans-serif; font-size: 10px; fill: #666; }
    .grid { stroke: #eee; stroke-width: 1; }
    .axis { stroke: #ccc; stroke-width: 2; }
</style>
<line x1="50" y1="50" x2="50" y2="650" class="grid" />
<line x1="275" y1="50" x2="275" y2="650" class="grid" />
<line x1="500" y1="50" x2="500" y2="650" class="grid" />
<line x1="725" y1="50" x2="725" y2="650" class="grid" />
<line x1="950" y1="50" x2="950" y2="650" class="grid" />
<line x1="50" y1="575" x2="950" y2="575" class="grid" />
<line x1="50" y1="350" x2="950" y2="350" class="grid" />
<line x1="50" y1="125" x2="950" y2="125" class="grid" />
<line x1="50.0" y1="575.0" x2="500.0" y2="575.0" class="path-line" />
<path d="M 500.0 575.0 Q 837.5 462.5 950.0 125.0" class="path-arc" />
<circle cx="50.0" cy="575.0" r="6" class="point-poinsp" />
<text x="50.0" y="595.0" class="coord-label" text-anchor="middle">(0,0)</text>
<circle cx="500.0" cy="575.0" r="6" class="point-poinsp" />
<text x="500.0" y="595.0" class="coord-label" text-anchor="middle">(200,0)</text>
<circle cx="725.0" cy="350.0" r="6" class="point-curve" />
<text x="725.0" y="370.0" class="coord-label" text-anchor="middle">(300,100)</text>
<circle cx="950.0" cy="125.0" r="6" class="point-poinsp" />
<text x="950.0" y="145.0" class="coord-label" text-anchor="middle">(400,200)</text>
</svg>